<?xml version="1.0" standalone="no"?>
<!DOCTYPE svg PUBLIC "-//W3C//DTD SVG 20010904//EN"
 "http://www.w3.org/TR/2001/REC-SVG-20010904/DTD/svg10.dtd">
<svg version="1.0" xmlns="http://www.w3.org/2000/svg"
 width="512.000000pt" height="512.000000pt" viewBox="0 0 512.000000 512.000000"
 preserveAspectRatio="xMidYMid meet">

<g transform="translate(0.000000,512.000000) scale(0.100000,-0.100000)"
fill="#000000" stroke="none">
<path d="M2508 4306 c-20 -7 -121 -85 -225 -173 -103 -88 -518 -439 -921 -781
-403 -342 -733 -625 -733 -629 0 -11 184 -232 194 -232 4 -1 393 326 865 726
471 400 864 727 872 727 8 0 401 -327 872 -727 472 -400 861 -727 865 -726 7
0 106 115 179 207 l22 27 -409 345 -408 345 0 253 c-1 246 0 252 19 252 17 0
20 7 20 40 l0 40 -240 0 -240 0 0 -40 c0 -33 3 -40 20 -40 18 0 20 -7 20 -82
l0 -81 -22 20 c-13 11 -157 133 -320 271 -331 280 -345 288 -430 258z"/>
<path d="M2482 3509 c-73 -14 -149 -55 -202 -109 -154 -153 -154 -407 0 -560
153 -154 407 -154 560 0 226 225 105 610 -210 670 -60 11 -87 11 -148 -1z
m210 -101 c70 -32 124 -86 157 -157 54 -115 27 -264 -64 -356 -122 -121 -328
-121 -450 0 -78 78 -111 204 -82 306 57 194 259 289 439 207z"/>
<path d="M1376 2464 c-9 -8 -16 -19 -16 -24 0 -22 34 -40 76 -40 l44 0 0 -400
0 -400 -44 0 c-27 0 -51 -6 -60 -16 -20 -19 -20 -29 0 -48 13 -14 66 -16 424
-16 358 0 411 2 424 16 9 8 16 19 16 24 0 22 -34 40 -76 40 l-44 0 0 400 0
400 44 0 c27 0 51 6 60 16 20 19 20 29 0 48 -13 14 -66 16 -424 16 -358 0
-411 -2 -424 -16z m664 -464 l0 -320 -240 0 -240 0 0 320 0 320 240 0 240 0 0
-320z"/>
<path d="M2976 2224 c-9 -8 -16 -19 -16 -24 0 -22 34 -40 76 -40 l44 0 0 -600
0 -600 -954 0 -955 0 15 27 c7 16 14 33 14 40 0 6 13 14 29 18 15 3 41 20 57
36 24 25 29 39 29 81 0 45 -4 53 -36 82 -21 17 -39 45 -43 62 -8 37 -51 80
-89 89 -15 4 -40 19 -56 34 -38 36 -102 54 -155 46 -57 -10 -74 -20 -132 -78
-28 -29 -62 -60 -77 -70 -36 -24 -50 -78 -33 -128 11 -33 11 -45 0 -78 -23
-68 7 -131 72 -151 21 -6 -5 -9 -84 -9 -137 -1 -139 8 26 -162 421 -438 956
-706 1557 -780 55 -7 188 -12 295 -12 107 0 240 5 295 12 493 61 950 256 1330
568 107 87 334 313 355 353 11 20 6 20 -405 20 l-415 0 0 600 0 600 44 0 c42
0 76 18 76 40 0 5 -7 16 -16 24 -13 14 -66 16 -424 16 -358 0 -411 -2 -424
-16z"/>
</g>
</svg>
